<?xml version="1.0" encoding="UTF-8" standalone="no"?>
<!-- Created with Inkscape (http://www.inkscape.org/) -->

<svg
   width="48.195633mm"
   height="17.717175mm"
   viewBox="0 0 48.195632 17.717175"
   version="1.1"
   id="svg1"
   inkscape:version="1.4 (1:1.4+202410161351+e7c3feb100)"
   sodipodi:docname="jardins_4_2.svg"
   xmlns:inkscape="http://www.inkscape.org/namespaces/inkscape"
   xmlns:sodipodi="http://sodipodi.sourceforge.net/DTD/sodipodi-0.dtd"
   xmlns="http://www.w3.org/2000/svg"
   xmlns:svg="http://www.w3.org/2000/svg">
  <sodipodi:namedview
     id="namedview1"
     pagecolor="#ffffff"
     bordercolor="#666666"
     borderopacity="1.0"
     inkscape:showpageshadow="2"
     inkscape:pageopacity="0.0"
     inkscape:pagecheckerboard="0"
     inkscape:deskcolor="#d1d1d1"
     inkscape:document-units="mm"
     inkscape:zoom="22.627417"
     inkscape:cx="149.08905"
     inkscape:cy="54.182057"
     inkscape:window-width="1920"
     inkscape:window-height="1039"
     inkscape:window-x="1920"
     inkscape:window-y="0"
     inkscape:window-maximized="1"
     inkscape:current-layer="layer1" />
  <defs
     id="defs1" />
  <g
     inkscape:label="Calque 1"
     inkscape:groupmode="layer"
     id="layer1"
     transform="translate(-72.328918,-37.306425)">
    <g
       id="text1"
       style="font-size:7.77899px;line-height:1.25;font-family:'Brannboll Stencil PERSONAL USE';-inkscape-font-specification:'Brannboll Stencil PERSONAL USE, Normal';text-align:center;text-anchor:middle;stroke-width:0.264583"
       aria-label="Les jardins&#10;de JOSYAN">
      <path
         style="font-family:'Fellee Stencil Demo';-inkscape-font-specification:'Fellee Stencil Demo, Normal'"
         d="m 75.313126,37.983197 c -0.0363,-0.06742 -0.08816,-0.121871 -0.155579,-0.163359 -0.06742,-0.04149 -0.140022,-0.0726 -0.217812,-0.09335 -0.0726,-0.02593 -0.150394,-0.04408 -0.23337,-0.05445 -0.07779,-0.01037 -0.152987,-0.01556 -0.225591,-0.01556 v -0.124463 c 0.160766,0 0.318939,0.01037 0.474519,0.03111 0.160765,0.01556 0.324124,0.0363 0.490076,0.06223 0.05186,0.01037 0.10372,0.01815 0.15558,0.02334 0.05186,0.0052 0.106313,0.0078 0.163359,0.0078 0.08816,-0.01037 0.171138,-0.01815 0.248927,-0.02334 0.08298,-0.01037 0.168545,-0.02075 0.256707,-0.03112 0.243742,-0.04667 0.510821,-0.07001 0.801236,-0.07001 v 0.124463 c -0.145208,0 -0.298195,0.02074 -0.45896,0.06223 -0.160766,0.04149 -0.28523,0.129649 -0.373392,0.264486 -0.01037,0.02075 -0.02334,0.04408 -0.03889,0.07001 -0.01037,0.02593 -0.02334,0.06224 -0.0389,0.108906 -0.01037,0.04667 -0.02075,0.111498 -0.03112,0.194474 -0.0052,0.07779 -0.0078,0.178917 -0.0078,0.303381 l 0.0078,5.243039 c 0,0.12965 0.0026,0.241149 0.0078,0.334497 0.01037,0.08816 0.02075,0.160766 0.03112,0.217811 0.01037,0.05705 0.02075,0.103721 0.03112,0.140022 0.01556,0.03111 0.02852,0.05704 0.03889,0.07779 0.134836,0.217812 0.412287,0.326718 0.832352,0.326718 v 0.124464 c -0.15558,0 -0.308567,-0.0052 -0.45896,-0.01556 -0.150394,-0.01556 -0.300788,-0.0389 -0.451182,-0.07001 -0.07779,-0.01037 -0.15558,-0.01815 -0.233369,-0.02334 -0.07779,-0.0052 -0.15558,-0.0078 -0.23337,-0.0078 -0.04149,0 -0.08298,0.0026 -0.124464,0.0078 -0.04149,0 -0.08297,0.0026 -0.124464,0.0078 -0.165952,0.02593 -0.326718,0.04926 -0.482297,0.07001 -0.15558,0.02075 -0.316346,0.03112 -0.482298,0.03112 v -0.124464 c 0.228184,0 0.41488,-0.03371 0.560088,-0.101127 0.08298,-0.04149 0.158173,-0.09853 0.22559,-0.171138 0.0726,-0.0726 0.108906,-0.160766 0.108906,-0.264486 l 0.0078,-0.350054 v -5.912032 c 0,-0.06223 -0.02334,-0.134837 -0.07001,-0.217812 z m 1.960306,7.102218 c 0.217811,0 0.440809,-0.05445 0.668993,-0.163359 0.228183,-0.108906 0.430437,-0.261893 0.606761,-0.458961 0.18151,-0.197067 0.321532,-0.43303 0.420066,-0.707888 0.103719,-0.280043 0.140021,-0.591203 0.108905,-0.933478 0.217812,0.08298 0.373392,0.197067 0.46674,0.342275 0.09853,0.140022 0.150394,0.290416 0.15558,0.451182 0.0052,0.155579 -0.02592,0.311159 -0.09335,0.466739 -0.06223,0.15558 -0.145209,0.293009 -0.248928,0.412286 -0.09335,0.114092 -0.202254,0.210033 -0.326718,0.287823 -0.124463,0.07779 -0.256706,0.140022 -0.396728,0.186696 -0.140022,0.04667 -0.28523,0.08038 -0.435623,0.101127 -0.145208,0.02075 -0.287823,0.03112 -0.427845,0.03112 H 77.57681 c -0.06223,-0.0052 -0.124465,-0.01039 -0.186695,-0.01556 z M 81.474076,44.81315 C 81.245892,44.693872 81.035859,44.543478 80.843977,44.361969 80.652096,44.175273 80.49133,43.960054 80.36168,43.716312 80.23203,43.467385 80.141275,43.189934 80.089415,42.88396 c -0.04667,-0.311159 -0.04149,-0.648249 0.01556,-1.011268 0.05705,-0.373391 0.16336,-0.707888 0.318939,-1.00349 0.15558,-0.300787 0.347462,-0.554901 0.575645,-0.762341 0.23337,-0.207439 0.495263,-0.365612 0.785678,-0.474518 0.295602,-0.114092 0.611948,-0.171138 0.949037,-0.171138 0.124464,0 0.248928,0.0078 0.373391,0.02334 -0.290415,-0.03111 -0.56268,0.02853 -0.816794,0.178917 -0.254113,0.145207 -0.482297,0.342275 -0.684551,0.591203 -0.197067,0.243741 -0.363019,0.521192 -0.497855,0.832352 -0.12965,0.305973 -0.217812,0.606761 -0.264486,0.902363 -0.06223,0.399321 -0.05186,0.775306 0.03112,1.127953 0.08816,0.347461 0.228184,0.656028 0.420066,0.9257 0.06223,0.09335 0.147802,0.194475 0.256706,0.303381 0.108906,0.103719 0.225591,0.202253 0.350055,0.295601 0.12965,0.08816 0.261893,0.163359 0.396728,0.225591 0.140022,0.05705 0.269672,0.08557 0.38895,0.08557 0.108906,0 0.210033,-0.01815 0.303381,-0.05445 0.09853,-0.04149 0.186695,-0.09335 0.264485,-0.15558 0.07779,-0.06223 0.147801,-0.129651 0.210033,-0.202254 0.06223,-0.0726 0.116686,-0.142615 0.163359,-0.210032 0.09335,-0.134836 0.186695,-0.272265 0.280043,-0.412287 0.09853,-0.140022 0.202254,-0.261893 0.31116,-0.365612 0.05186,-0.05705 0.111499,-0.1115 0.178917,-0.163359 0.145207,-0.08298 0.321531,-0.134836 0.528971,-0.15558 0.08816,-0.0052 0.18151,-0.0052 0.280044,0 0.09853,0.0052 0.202253,0.02076 0.311159,0.04667 -0.176323,0.05705 -0.337089,0.147802 -0.482297,0.272265 -0.145208,0.124463 -0.220405,0.287822 -0.225591,0.490076 -0.0052,0.10372 0.02332,0.210033 0.08557,0.318939 0.06742,0.108905 0.150394,0.210032 0.248928,0.30338 0.09853,0.09335 0.207439,0.173731 0.326717,0.241149 0.124464,0.06742 0.241149,0.114092 0.350055,0.140022 -0.274858,0 -0.5186,-0.03112 -0.731225,-0.09335 -0.212626,-0.06223 -0.391543,-0.142616 -0.536751,-0.241149 -0.140021,-0.10372 -0.25152,-0.217812 -0.334496,-0.342275 -0.07779,-0.124464 -0.121871,-0.248928 -0.132243,-0.373392 -0.05705,0.08816 -0.114093,0.173731 -0.171138,0.256707 -0.05705,0.07779 -0.114092,0.160766 -0.171137,0.248927 -0.124464,0.165952 -0.264486,0.31116 -0.420066,0.435624 -0.150394,0.124464 -0.339683,0.186696 -0.567866,0.186696 -0.217812,0 -0.435624,-0.02593 -0.653435,-0.07779 -0.217812,-0.05186 -0.427845,-0.12965 -0.630098,-0.23337 z m 3.477208,-2.792657 c -0.331903,-0.269672 -0.544529,-0.557495 -0.637877,-0.863468 -0.09335,-0.31116 -0.07779,-0.59639 0.04667,-0.855689 0.124463,-0.2593 0.350054,-0.469333 0.676772,-0.630098 0.43253,-0.214341 1.130727,-0.260136 1.384664,-0.202233 -0.293556,-3.5e-5 -0.496506,0.01258 -0.739004,0.07777 -0.18151,0.06742 -0.331904,0.158173 -0.451181,0.272265 -0.119278,0.114091 -0.20744,0.246334 -0.264486,0.396728 -0.05705,0.145208 -0.08038,0.298195 -0.07001,0.45896 0.01556,0.15558 0.06223,0.313753 0.140022,0.474519 0.08298,0.155579 0.204847,0.298194 0.365612,0.427844 0.10372,0.08298 0.230777,0.173731 0.381171,0.272265 0.150394,0.09853 0.31116,0.20744 0.482297,0.326717 0.171138,0.119278 0.342276,0.248928 0.513414,0.38895 0.176323,0.140022 0.334496,0.290416 0.474518,0.451181 0.140022,0.15558 0.254114,0.321532 0.342275,0.497856 0.09335,0.176323 0.142615,0.363019 0.147801,0.560087 0,0.06223 -0.01297,0.152988 -0.0389,0.272265 -0.02593,0.114091 -0.08557,0.228183 -0.178916,0.342275 -0.09335,0.108906 -0.230777,0.204847 -0.412287,0.287823 -0.176324,0.08298 -0.41488,0.124464 -0.715667,0.124464 h -0.178917 c -0.06223,-0.0052 -0.127058,-0.01039 -0.194474,-0.01556 0.212625,0.01037 0.391542,-0.0078 0.53675,-0.05445 0.145208,-0.05186 0.269672,-0.165952 0.373391,-0.342276 0.114092,-0.191882 0.163359,-0.373392 0.147801,-0.544529 -0.01556,-0.171138 -0.07261,-0.33709 -0.171138,-0.497856 -0.09853,-0.160765 -0.230776,-0.313752 -0.396728,-0.45896 -0.165952,-0.145208 -0.342276,-0.28523 -0.528971,-0.420065 -0.18151,-0.134836 -0.365613,-0.264486 -0.552309,-0.38895 -0.181509,-0.124464 -0.342275,-0.243742 -0.482297,-0.357833 z m -1.610251,-2.489277 c 0.238556,0.12965 0.412287,0.277451 0.521192,0.443402 0.108906,0.160766 0.165952,0.326718 0.171138,0.497856 0.01037,0.165951 -0.02593,0.32931 -0.108906,0.490076 -0.07779,0.15558 -0.184103,0.298195 -0.318938,0.427844 -0.134836,0.124464 -0.293009,0.225591 -0.474519,0.303381 -0.176323,0.0726 -0.360426,0.108906 -0.552308,0.108906 -0.217812,0 -0.425252,-0.05705 -0.622319,-0.171138 0.176324,-0.02075 0.352648,-0.07261 0.528971,-0.15558 0.18151,-0.08816 0.347462,-0.197067 0.497856,-0.326717 0.155579,-0.12965 0.290415,-0.269672 0.404507,-0.420066 0.114092,-0.155579 0.191882,-0.308566 0.23337,-0.45896 0.04667,-0.150394 0.04927,-0.290416 0.0078,-0.420066 -0.0363,-0.129649 -0.132241,-0.235962 -0.287823,-0.318938 z m 3.243839,-0.05445 c 0.477111,0.160766 0.816794,0.339683 1.019047,0.53675 0.202254,0.191882 0.300788,0.370799 0.295602,0.536751 -0.0052,0.160765 -0.09855,0.295601 -0.280044,0.404507 -0.181509,0.10372 -0.420065,0.147801 -0.715667,0.132243 0.145208,-0.145208 0.235963,-0.295602 0.272265,-0.451182 0.0363,-0.155579 0.03111,-0.305973 -0.01556,-0.451181 -0.04149,-0.145208 -0.114091,-0.280044 -0.217812,-0.404507 -0.103719,-0.124464 -0.222997,-0.225591 -0.357833,-0.303381 z m 5.165234,7.584515 c 0.23337,0 0.433031,-0.06223 0.598983,-0.186696 0.165951,-0.119278 0.300787,-0.277451 0.404507,-0.474518 0.10372,-0.197068 0.178917,-0.417473 0.225591,-0.661214 0.04667,-0.238556 0.07001,-0.479705 0.07001,-0.723446 -0.01556,-0.850503 -0.02334,-1.56617 -0.02334,-2.147001 0.0052,-0.586017 0.01039,-1.068315 0.01556,-1.446893 0.01037,-0.378577 0.01815,-0.671586 0.02334,-0.879025 0.0052,-0.20744 -0.0026,-0.360427 -0.02334,-0.458961 -0.01556,-0.10372 -0.04668,-0.168545 -0.09335,-0.194475 -0.04149,-0.02593 -0.108905,-0.04667 -0.202254,-0.06223 -0.06223,-0.01037 -0.145209,-0.01815 -0.248928,-0.02334 -0.09853,-0.01037 -0.215218,-0.01556 -0.350054,-0.01556 v -0.171138 c 0.259299,0 0.453774,-0.0026 0.583424,-0.0078 0.134836,-0.0052 0.248928,-0.01298 0.342276,-0.02334 0.09335,-0.01556 0.189288,-0.03112 0.287822,-0.04667 0.09853,-0.01556 0.243742,-0.03112 0.435624,-0.04667 v 5.204144 c 0,0.762341 -0.163359,1.345766 -0.490077,1.750273 -0.326717,0.409693 -0.845317,0.61454 -1.555798,0.61454 z m 1.579135,-8.175718 c -0.134835,0 -0.25152,-0.04667 -0.350054,-0.140022 -0.09335,-0.09853 -0.140022,-0.215219 -0.140022,-0.350055 0,-0.134835 0.04667,-0.248927 0.140022,-0.342275 0.09853,-0.09853 0.215219,-0.147801 0.350054,-0.147801 0.134836,0 0.251521,0.04927 0.350055,0.147801 0.09853,0.09335 0.147801,0.20744 0.147801,0.342275 0,0.134836 -0.04927,0.251521 -0.147801,0.350055 -0.09853,0.09335 -0.215219,0.140022 -0.350055,0.140022 z m 5.756432,5.748673 c 0,0.07779 0.03112,0.142615 0.09335,0.194475 0.06223,0.04667 0.140023,0.08557 0.23337,0.116685 0.09335,0.03111 0.191881,0.05186 0.295601,0.06223 0.10372,0.01037 0.197068,0.01556 0.280044,0.01556 v 0.101127 c -0.07779,0 -0.168545,-0.0026 -0.272265,-0.0078 -0.10372,-0.01037 -0.212626,-0.01815 -0.326717,-0.02334 -0.108906,-0.01037 -0.215219,-0.01815 -0.318939,-0.02334 -0.10372,-0.0052 -0.194475,-0.0078 -0.272265,-0.0078 h -0.08557 c -0.07779,0.0052 -0.168544,0.01039 -0.272264,0.01556 -0.09853,0.0052 -0.204847,0.01298 -0.318939,0.02334 -0.114092,0.0052 -0.230777,0.01039 -0.350054,0.01556 -0.114092,0.0052 -0.222998,0.0078 -0.326718,0.0078 v -0.101127 c 0.150394,0 0.305974,-0.01297 0.46674,-0.0389 0.165951,-0.03111 0.285229,-0.09334 0.357833,-0.186696 0.01556,-0.01556 0.02852,-0.02853 0.03889,-0.0389 0.01037,-0.01556 0.01815,-0.03112 0.02334,-0.04667 0.0052,-0.02075 0.0078,-0.04668 0.0078,-0.07779 0.0052,-0.0363 0.0078,-0.08297 0.0078,-0.140022 0,-0.02593 0.0026,-0.114088 0.0078,-0.264485 0.01037,-0.15558 0.01556,-0.344869 0.01556,-0.567867 0.0052,-0.228183 0.0026,-0.479704 -0.0078,-0.754562 -0.0052,-0.274857 -0.02335,-0.544529 -0.05445,-0.809014 -0.03111,-0.269672 -0.07519,-0.521193 -0.132243,-0.754562 -0.05705,-0.238556 -0.132244,-0.433031 -0.225591,-0.583425 -0.08297,-0.140021 -0.191881,-0.274857 -0.326717,-0.404507 -0.134836,-0.12965 -0.293009,-0.246335 -0.474518,-0.350055 -0.176324,-0.108906 -0.373392,-0.202254 -0.591204,-0.280043 -0.217811,-0.07779 -0.451181,-0.132243 -0.700109,-0.163359 -0.0052,0 -0.0078,-0.0026 -0.0078,-0.0078 0,-0.0052 0.0026,-0.0078 0.0078,-0.0078 0.15558,-0.02075 0.305974,-0.0363 0.451182,-0.04667 0.150393,-0.01037 0.298194,-0.01556 0.443402,-0.01556 0.119278,0 0.235963,0.0052 0.350055,0.01556 0.119277,0.01037 0.233369,0.03112 0.342275,0.06223 0.331904,0.07779 0.601576,0.212626 0.809015,0.404507 0.212626,0.186696 0.375985,0.407101 0.490076,0.661214 0.119278,0.248928 0.202254,0.521193 0.248928,0.816794 0.04667,0.290416 0.0752,0.580832 0.08557,0.871247 0.01037,0.290416 0.01037,0.567867 0,0.832352 -0.0052,0.2593 -0.0026,0.484891 0.0078,0.676772 z m -4.029517,-1.011268 c 0,0.176323 0.03889,0.326717 0.116685,0.451181 0.08298,0.119278 0.189289,0.217812 0.318939,0.295602 0.134835,0.07779 0.285229,0.134835 0.451181,0.171137 0.165952,0.03111 0.331904,0.04667 0.497855,0.04667 0.254114,0 0.484891,-0.03371 0.692331,-0.101127 0.212625,-0.06742 0.347461,-0.152986 0.404507,-0.256706 -0.06742,0.129649 -0.160766,0.248927 -0.280044,0.357833 -0.119277,0.108906 -0.256706,0.202254 -0.412286,0.280044 -0.15558,0.07779 -0.321532,0.140022 -0.497855,0.186696 -0.171138,0.04149 -0.344869,0.06223 -0.521193,0.06223 -0.191881,0 -0.375984,-0.02593 -0.552308,-0.07779 -0.176324,-0.05705 -0.334497,-0.142616 -0.474518,-0.256707 -0.140022,-0.119278 -0.254114,-0.272265 -0.342276,-0.45896 -0.08298,-0.191882 -0.12965,-0.420066 -0.140022,-0.684552 -0.01037,-0.373391 0.06223,-0.687144 0.217812,-0.941257 0.15558,-0.2593 0.355241,-0.46674 0.598982,-0.622319 0.243742,-0.160766 0.508228,-0.274858 0.793457,-0.342276 0.290416,-0.06742 0.560088,-0.101127 0.809015,-0.101127 0.311159,0 0.557494,0.04149 0.739004,0.124464 -0.02593,-0.01037 -0.05964,-0.01556 -0.101127,-0.01556 -0.04149,-0.0052 -0.09075,-0.0078 -0.147801,-0.0078 -0.108905,0 -0.238555,0.01297 -0.388949,0.0389 -0.150394,0.02593 -0.305974,0.06742 -0.466739,0.124464 -0.160766,0.05705 -0.318939,0.134836 -0.474519,0.233369 -0.15558,0.09335 -0.295602,0.210033 -0.420065,0.350055 -0.124464,0.140022 -0.225591,0.303381 -0.303381,0.490076 -0.07779,0.186696 -0.116685,0.404508 -0.116685,0.653436 z m 0.287823,-2.551509 c -0.08816,0.02075 -0.184103,0.03112 -0.287823,0.03112 -0.197067,0 -0.35524,-0.03889 -0.474518,-0.116685 -0.119278,-0.07779 -0.202254,-0.176324 -0.248928,-0.295602 -0.04149,-0.119277 -0.04667,-0.246334 -0.01556,-0.38117 0.0363,-0.134836 0.108904,-0.2593 0.217812,-0.373392 0.114092,-0.114091 0.264486,-0.207439 0.451181,-0.280043 0.191882,-0.0726 0.420066,-0.103721 0.684551,-0.09335 -0.108905,0.01037 -0.204846,0.05445 -0.287822,0.132243 -0.08298,0.0726 -0.150394,0.163359 -0.202254,0.272264 -0.05186,0.10372 -0.09076,0.217812 -0.116685,0.342276 -0.02075,0.119278 -0.02593,0.23337 -0.01556,0.342275 0.01556,0.10372 0.04668,0.194475 0.09335,0.272265 0.04667,0.07779 0.114091,0.127057 0.202254,0.147801 z m 3.477208,-1.143512 c 0.254114,-0.155579 0.490077,-0.267078 0.707888,-0.334496 0.217812,-0.0726 0.412287,-0.108906 0.583425,-0.108906 0.2593,0 0.45896,0.06483 0.59898,0.194475 0.14521,0.129649 0.2204,0.290415 0.22559,0.482297 0.005,0.186696 -0.0673,0.391543 -0.21781,0.61454 -0.15039,0.217812 -0.38895,0.417473 -0.71567,0.598982 0.0623,-0.124463 0.11153,-0.248927 0.1478,-0.373391 0.0415,-0.124464 0.0726,-0.241149 0.0933,-0.350055 0.0207,-0.114091 0.0259,-0.215218 0.0156,-0.30338 -0.005,-0.09335 -0.0235,-0.165952 -0.0545,-0.217812 -0.0623,-0.10372 -0.15821,-0.173731 -0.287825,-0.210033 -0.124464,-0.0363 -0.264486,-0.05445 -0.420066,-0.05445 -0.108905,0 -0.222997,0.0078 -0.342275,0.02334 -0.114092,0.01556 -0.225591,0.02852 -0.334497,0.03889 z m 5.678643,-2.287023 c -0.14521,-0.02593 -0.34487,-0.03889 -0.59898,-0.03889 v -0.163358 c 0.20225,0 0.3708,-0.0026 0.50563,-0.0078 0.13484,-0.0052 0.25671,-0.01298 0.36562,-0.02334 0.1089,-0.01556 0.21521,-0.03112 0.31893,-0.04667 0.10891,-0.01556 0.23337,-0.03371 0.3734,-0.05445 h 0.12446 v 6.627699 c 0,0.124464 0.0104,0.235963 0.0311,0.334497 0.0207,0.09853 0.0493,0.186695 0.0856,0.264485 0.0519,0.09335 0.11669,0.158173 0.19448,0.194475 0.0778,0.01556 0.14002,0.01816 0.18669,0.0078 0.0519,-0.01037 0.096,-0.03112 0.13225,-0.06223 0.0415,-0.03111 0.0778,-0.06741 0.1089,-0.108906 0.0311,-0.04667 0.0648,-0.09335 0.10113,-0.140022 0.13483,-0.186695 0.28263,-0.414879 0.4434,-0.684551 0.16077,-0.269671 0.31894,-0.565273 0.47452,-0.886804 v -2.714868 c 0,-0.10372 -0.0285,-0.176324 -0.0856,-0.217812 -0.0519,-0.04149 -0.12706,-0.06742 -0.22559,-0.07779 -0.0623,-0.01556 -0.14265,-0.02593 -0.24115,-0.03111 -0.0934,-0.0052 -0.20744,-0.0078 -0.34227,-0.0078 v -0.171138 c 0.20225,0 0.36561,-0.0026 0.49007,-0.0078 0.12965,-0.0052 0.24375,-0.01298 0.34228,-0.02334 0.10372,-0.01556 0.20485,-0.03112 0.30338,-0.04667 0.10372,-0.01556 0.22559,-0.03371 0.36561,-0.05445 h 0.13225 v 1.493566 c 0.10372,-0.363019 0.17892,-0.710481 0.22559,-1.042385 0.0519,-0.337089 0.0545,-0.64047 0.008,-0.910141 -0.0415,-0.269672 -0.12963,-0.487484 -0.26448,-0.653436 0,0.145208 -0.0441,0.272265 -0.13224,0.381171 -0.083,0.10372 -0.20226,0.15558 -0.35784,0.15558 -0.13483,0 -0.25152,-0.04667 -0.35005,-0.140022 -0.0934,-0.09853 -0.14002,-0.215219 -0.14002,-0.350055 0,-0.134835 0.0467,-0.248927 0.14002,-0.342275 0.0985,-0.09853 0.21522,-0.147801 0.35005,-0.147801 0.11928,0 0.223,0.0363 0.31116,0.108906 0.21781,0.12965 0.37599,0.313753 0.47452,0.552308 0.0985,0.238556 0.1478,0.510821 0.1478,0.816794 0.005,0.305973 -0.031,0.635284 -0.1089,0.987932 -0.0778,0.352647 -0.17892,0.710481 -0.30338,1.0735 v 2.979353 c 0,0.06742 0.0259,0.137429 0.0778,0.210033 0.0363,0.06742 0.0856,0.121871 0.1478,0.163359 0.0622,0.04149 0.12962,0.0752 0.20225,0.101127 0.0778,0.02075 0.15558,0.0363 0.23337,0.04667 0.083,0.01037 0.16336,0.01556 0.24115,0.01556 v 0.124464 c -0.1867,0 -0.3345,-0.0052 -0.4434,-0.01556 -0.10891,-0.01556 -0.20226,-0.03112 -0.28005,-0.04667 -0.0778,-0.01556 -0.15298,-0.02852 -0.22559,-0.03889 -0.0674,-0.01556 -0.15558,-0.02334 -0.26448,-0.02334 -0.14003,0 -0.25671,0.0078 -0.35006,0.02334 -0.0934,0.01037 -0.1841,0.02334 -0.27226,0.03889 -0.0882,0.01556 -0.1867,0.03112 -0.29561,0.04667 -0.10371,0.01037 -0.23855,0.01556 -0.4045,0.01556 v -0.124464 c 0.15039,0 0.30597,-0.02074 0.46674,-0.06223 0.16077,-0.04149 0.28004,-0.129649 0.35783,-0.264486 0.0467,-0.07779 0.07,-0.147801 0.07,-0.210033 V 43.19512 c -0.223,0.425251 -0.44081,0.79605 -0.65343,1.112396 -0.20744,0.316345 -0.37858,0.528971 -0.51342,0.637877 -0.0415,0.0363 -0.1037,0.06742 -0.18669,0.09335 -0.083,0.02593 -0.17374,0.03889 -0.27227,0.03889 -0.10372,0 -0.21003,-0.01815 -0.31894,-0.05445 -0.10891,-0.04149 -0.20744,-0.111498 -0.2956,-0.210033 -0.0882,-0.09853 -0.16076,-0.230777 -0.21781,-0.396729 -0.0571,-0.171137 -0.0856,-0.386356 -0.0856,-0.645656 0,-0.124463 -0.003,-0.388949 -0.008,-0.793457 v -1.664703 -3.360524 c 0,-0.04149 -0.003,-0.07779 -0.008,-0.108906 -0.005,-0.0363 -0.0209,-0.06742 -0.0467,-0.09335 -0.0259,-0.04149 -0.10632,-0.07779 -0.24115,-0.108906 z m -3.46165,4.675173 c -0.0259,-0.487483 0.0519,-0.946444 0.23337,-1.376881 0.18669,-0.435623 0.46933,-0.806422 0.84791,-1.112396 0.16595,-0.134835 0.33709,-0.230776 0.51341,-0.287822 0.18151,-0.06223 0.36302,-0.09335 0.54453,-0.09335 0.17633,0 0.34487,0.02593 0.50564,0.07779 0.16077,0.04667 0.30597,0.111498 0.43562,0.194475 0.12965,0.07779 0.23856,0.168544 0.32672,0.272264 0.0882,0.10372 0.1478,0.210033 0.17891,0.318939 -0.10372,-0.150394 -0.24893,-0.267079 -0.43562,-0.350055 -0.18151,-0.08816 -0.38635,-0.132243 -0.61454,-0.132243 -0.20744,0 -0.41747,0.04408 -0.6301,0.132243 -0.21263,0.08816 -0.40451,0.230777 -0.57564,0.427845 -0.17114,0.191881 -0.31116,0.445995 -0.42007,0.762341 -0.10891,0.316345 -0.16336,0.705295 -0.16336,1.166848 0,0.28523 0.0493,0.567867 0.1478,0.84791 0.10372,0.274858 0.24374,0.521193 0.42007,0.739004 0.17633,0.217812 0.38117,0.394136 0.61454,0.528971 0.23855,0.134836 0.49267,0.202254 0.76234,0.202254 0.14521,0 0.29301,-0.02074 0.4434,-0.06223 0.15039,-0.04667 0.30079,-0.12187 0.45118,-0.22559 -0.0778,0.07779 -0.16854,0.158172 -0.27226,0.241148 -0.0985,0.08298 -0.21003,0.158173 -0.3345,0.225591 -0.11927,0.06742 -0.24892,0.124464 -0.38895,0.171138 -0.14002,0.04149 -0.28782,0.06223 -0.4434,0.06223 -0.16077,0 -0.32672,-0.02593 -0.49785,-0.07779 -0.16595,-0.05186 -0.33969,-0.145208 -0.5212,-0.280044 -0.19188,-0.134836 -0.35524,-0.274858 -0.49007,-0.420065 -0.13484,-0.150394 -0.24634,-0.318939 -0.3345,-0.505635 -0.0882,-0.186695 -0.15817,-0.396728 -0.21003,-0.630098 -0.0467,-0.233369 -0.0778,-0.505634 -0.0934,-0.816794 z m 11.82406,-1.983642 c -0.0519,-0.09335 -0.12447,-0.173731 -0.21781,-0.241149 -0.0882,-0.0726 -0.19966,-0.108906 -0.3345,-0.108906 -0.14002,0 -0.30597,0.05445 -0.49785,0.163359 -0.18669,0.10372 -0.39673,0.295602 -0.6301,0.575645 0.0311,-0.186695 0.0934,-0.35524 0.1867,-0.505634 0.0934,-0.150394 0.20484,-0.277451 0.33449,-0.381171 0.13484,-0.108905 0.28005,-0.191881 0.43563,-0.248927 0.16077,-0.06223 0.32153,-0.09335 0.48229,-0.09335 0.18151,0 0.35525,0.04408 0.5212,0.132243 0.16595,0.08298 0.30337,0.220405 0.41228,0.412286 0.0726,0.12965 0.12706,0.295602 0.16336,0.497856 0.0415,0.202253 0.07,0.412286 0.0856,0.630098 0.0155,0.212625 0.0233,0.420065 0.0233,0.622319 0.005,0.202254 0.0105,0.370799 0.0156,0.505634 0.005,0.326718 0.0702,0.645657 0.19447,0.956816 0.12965,0.305973 0.28523,0.586017 0.46674,0.840131 0.18669,0.248927 0.38117,0.464146 0.58342,0.645656 0.20225,0.176324 0.38117,0.298195 0.53675,0.365613 l 0.0156,0.01556 c -0.49267,-0.08816 -0.89717,-0.215219 -1.21352,-0.381171 -0.31635,-0.171138 -0.56787,-0.36302 -0.75456,-0.575645 -0.18151,-0.212626 -0.31376,-0.435624 -0.39673,-0.668993 -0.083,-0.238556 -0.13743,-0.464147 -0.16336,-0.676772 -0.0259,-0.217812 -0.0363,-0.412287 -0.0311,-0.583425 0.005,-0.176323 -0.002,-0.308566 -0.0233,-0.396728 -0.005,-0.300788 -0.0131,-0.580832 -0.0233,-0.840131 -0.0104,-0.264486 -0.0675,-0.484891 -0.17114,-0.661214 z m 1.92141,1.711378 c -0.3319,-0.269672 -0.54452,-0.560088 -0.63787,-0.871247 -0.0934,-0.31116 -0.0778,-0.59639 0.0467,-0.855689 0.12447,-0.2593 0.35265,-0.469333 0.68455,-0.630098 0.43028,-0.212446 1.16547,-0.275288 1.37696,-0.202233 -0.16639,-0.01283 -0.61288,-0.03925 -0.98015,0.194454 -0.22819,0.145207 -0.38636,0.32931 -0.47452,0.552308 -0.083,0.217812 -0.0907,0.451182 -0.0233,0.700109 0.0674,0.248928 0.22041,0.469333 0.45896,0.661214 0.10372,0.08298 0.23078,0.176324 0.38118,0.280044 0.15557,0.09853 0.31893,0.20744 0.49007,0.326717 0.17114,0.119278 0.34228,0.248928 0.51341,0.38895 0.17114,0.134836 0.32672,0.282637 0.46674,0.443402 0.14003,0.15558 0.25412,0.324125 0.34228,0.505635 0.0882,0.176323 0.13743,0.363019 0.1478,0.560087 0.005,0.06223 -0.005,0.150395 -0.0311,0.264486 -0.0259,0.114091 -0.0856,0.228183 -0.17891,0.342275 -0.0934,0.114092 -0.23078,0.212626 -0.41229,0.295602 -0.17632,0.08298 -0.41747,0.124464 -0.72344,0.124464 -0.11409,0 -0.23856,-0.0078 -0.3734,-0.02334 0.21781,0.01037 0.39673,-0.0078 0.53675,-0.05445 0.14521,-0.04667 0.26968,-0.158172 0.3734,-0.334497 0.11409,-0.191882 0.16335,-0.373392 0.1478,-0.544529 -0.0155,-0.176324 -0.0726,-0.344869 -0.17114,-0.505635 -0.0985,-0.160765 -0.23078,-0.313752 -0.39673,-0.45896 -0.16595,-0.145208 -0.34228,-0.28523 -0.52897,-0.420065 -0.18151,-0.134836 -0.36562,-0.261893 -0.55231,-0.381171 -0.18151,-0.124464 -0.34227,-0.243742 -0.4823,-0.357833 z m -5.42973,-2.481498 c 0.20225,0 0.3682,-0.0026 0.49785,-0.0078 0.12965,-0.0052 0.24634,-0.01039 0.35006,-0.01556 0.10372,-0.01037 0.20485,-0.02075 0.30338,-0.03112 0.10372,-0.01037 0.22559,-0.02334 0.36561,-0.0389 h 0.12447 v 5.149691 c 0,0.04149 0.0156,0.08557 0.0467,0.132243 0.0311,0.04667 0.083,0.09075 0.15558,0.132243 0.0726,0.0363 0.16595,0.06742 0.28004,0.09335 0.11409,0.02593 0.25412,0.03889 0.42007,0.03889 v 0.08557 c -0.083,0 -0.18411,-0.0026 -0.30338,-0.0078 l -0.35784,-0.03112 c -0.11927,-0.01037 -0.23336,-0.01815 -0.34227,-0.02334 -0.10891,-0.01037 -0.19707,-0.01556 -0.26449,-0.01556 -0.16077,0.01037 -0.36043,0.02593 -0.59898,0.04667 -0.23855,0.02075 -0.46414,0.03112 -0.67677,0.03112 v -0.08557 c 0.15558,0 0.31375,-0.01556 0.47452,-0.04667 0.16595,-0.03111 0.28522,-0.09334 0.35783,-0.186696 0.0207,-0.03111 0.0363,-0.05704 0.0467,-0.07779 0.0155,-0.02075 0.0233,-0.07261 0.0233,-0.15558 0.005,-0.08816 0.008,-0.222998 0.008,-0.404507 0,-0.18151 -0.003,-0.445996 -0.008,-0.793457 v -1.345765 -2.069212 c 0,-0.05705 -0.0182,-0.10372 -0.0545,-0.140021 -0.0415,-0.0363 -0.12444,-0.06482 -0.24893,-0.08557 -0.0623,-0.0052 -0.14524,-0.0078 -0.24893,-0.0078 -0.0985,-0.0052 -0.21522,-0.0078 -0.35005,-0.0078 z m 7.38226,1.54024 c 0.14521,-0.140022 0.23596,-0.287823 0.27226,-0.443403 0.0363,-0.155579 0.0337,-0.305973 -0.008,-0.451181 -0.0415,-0.150394 -0.11407,-0.287823 -0.21782,-0.412286 -0.10372,-0.124464 -0.22559,-0.225591 -0.36561,-0.303381 0.47711,0.160766 0.8168,0.339683 1.01905,0.53675 0.20225,0.191882 0.30079,0.370799 0.2956,0.536751 -0.005,0.165951 -0.0987,0.300787 -0.28004,0.404507 -0.18151,0.10372 -0.42007,0.147801 -0.71567,0.132243 z"
         id="path1"
         sodipodi:nodetypes="csccccccccccccscccccccscccccccsccsccccccscccscccccccsscscccscccccccsccccccccccscsssccccscsccsccsccccccssssccsccssccccsscccccccsccccsssccccccccccsccccccccsccccscsssccscccccccscccccccscccscssscscsccsscccccscccccccccccsccccccscscsccscccccscccscccsccsscscccccccsccscscssssssscccccccccsssccscccccccccsccccccsccccssccccccscscccccccccccccccscssscscccscscccccccscscccscscccsscscsccsccccccccsccsccsscsscscscccccscccscccccscccccscccccccccccccccccscccscccsccccscccccscscccccscccccsccccsscscccsccsccccccsccsccccccccccccccc" />
      <path
         style="font-family:'Fellee Stencil Demo';-inkscape-font-specification:'Fellee Stencil Demo, Normal'"
         d="m 76.79892,54.191247 c -0.2593,-0.280044 -0.453775,-0.62232 -0.583424,-1.026827 -0.124464,-0.404507 -0.147801,-0.868654 -0.07001,-1.392439 0.06223,-0.342276 0.16336,-0.661215 0.30338,-0.956816 0.145208,-0.295601 0.329311,-0.549715 0.552308,-0.762341 0.222998,-0.217812 0.482298,-0.386357 0.777899,-0.505634 0.295602,-0.124464 0.627506,-0.186696 0.995711,-0.186696 0.124464,0 0.251521,0.0078 0.381171,0.02334 -0.290416,-0.03111 -0.562681,0.02593 -0.816794,0.171138 -0.254114,0.145207 -0.482298,0.342275 -0.684551,0.591203 -0.197068,0.243741 -0.36302,0.521192 -0.497856,0.832352 -0.134835,0.305973 -0.22559,0.606761 -0.272264,0.902363 v 0.0078 c -0.04667,0.321531 -0.04667,0.632691 0,0.933478 0.04149,0.248928 0.119276,0.495263 0.233369,0.739004 0.114092,0.243742 0.2593,0.461554 0.435624,0.653435 0.176323,0.186696 0.378577,0.339683 0.606761,0.458961 0.233369,0.119278 0.487483,0.178917 0.762341,0.178917 0.269671,0 0.539343,-0.07001 0.809015,-0.210033 0.269671,-0.145208 0.523785,-0.381171 0.762341,-0.707888 l 0.116685,0.06223 c -0.228184,0.357833 -0.510821,0.619726 -0.84791,0.785678 -0.337089,0.160765 -0.689737,0.241148 -1.057943,0.241148 -0.337089,0 -0.656028,-0.05964 -0.956816,-0.178916 -0.295601,-0.124464 -0.567866,-0.298195 -0.816793,-0.521193 -0.01556,-0.01556 -0.03112,-0.02853 -0.04667,-0.0389 -0.01556,-0.01556 -0.02852,-0.03371 -0.03889,-0.05445 -0.01037,-0.0052 -0.02593,-0.01816 -0.04667,-0.03889 z m -4.46514,-1.898074 c -0.02593,-0.487483 0.05186,-0.946444 0.233369,-1.376881 0.186696,-0.435623 0.469333,-0.806422 0.84791,-1.112396 0.165952,-0.134835 0.33709,-0.230776 0.513414,-0.287822 0.181509,-0.06223 0.360426,-0.09335 0.53675,-0.09335 0.176323,0 0.344868,0.02593 0.505634,0.07779 0.160766,0.04667 0.305974,0.111498 0.435624,0.194474 0.129649,0.07779 0.238555,0.168545 0.326717,0.272265 0.09335,0.10372 0.15558,0.210033 0.186696,0.318939 -0.10372,-0.150394 -0.248928,-0.267079 -0.435624,-0.350055 -0.186695,-0.08816 -0.391542,-0.132243 -0.61454,-0.132243 -0.207439,0 -0.417472,0.04408 -0.630098,0.132243 -0.212625,0.08816 -0.4071,0.230777 -0.583424,0.427845 -0.171138,0.191881 -0.31116,0.445995 -0.420066,0.762341 -0.108905,0.316345 -0.163358,0.705295 -0.163358,1.166848 0,0.285229 0.05186,0.567866 0.155579,0.84791 0.10372,0.274857 0.243742,0.521192 0.420066,0.739004 0.176324,0.217811 0.381171,0.394135 0.61454,0.528971 0.238556,0.134836 0.49267,0.202254 0.762341,0.202254 0.140022,0 0.28523,-0.02074 0.435623,-0.06223 0.15558,-0.04667 0.308567,-0.12187 0.458961,-0.225591 -0.07779,0.07779 -0.168545,0.158173 -0.272265,0.241149 -0.09853,0.08298 -0.210033,0.158173 -0.334496,0.225591 -0.119278,0.06742 -0.251521,0.124464 -0.396729,0.171138 -0.140022,0.04149 -0.287823,0.06223 -0.443402,0.06223 -0.15558,0 -0.318939,-0.02593 -0.490077,-0.07779 -0.165951,-0.05705 -0.339682,-0.150395 -0.521192,-0.280044 -0.191881,-0.134836 -0.35524,-0.274858 -0.490076,-0.420066 -0.134836,-0.150393 -0.246335,-0.318938 -0.334497,-0.505634 -0.08816,-0.186696 -0.158173,-0.396729 -0.210033,-0.630098 -0.04667,-0.23337 -0.07779,-0.505635 -0.09335,-0.816794 z m 2.862668,-4.877427 c 0.202253,0 0.370798,-0.0026 0.505634,-0.0078 0.134836,-0.0052 0.256707,-0.01298 0.365613,-0.02334 0.108905,-0.01556 0.215218,-0.03112 0.318938,-0.04667 0.108906,-0.01556 0.23337,-0.03371 0.373392,-0.05445 h 0.124464 v 2.668193 l -0.05445,0.05445 c -0.01556,0.01556 -0.03371,0.0363 -0.05445,0.06223 -0.165952,0.165952 -0.305974,0.360427 -0.420066,0.583424 -0.114091,0.222998 -0.202253,0.445996 -0.264485,0.668993 v -3.399418 c 0,-0.10372 -0.02593,-0.173731 -0.07779,-0.210033 -0.04667,-0.04149 -0.119277,-0.0726 -0.217812,-0.09335 -0.0726,-0.01037 -0.158173,-0.01815 -0.256707,-0.02334 -0.09335,-0.01037 -0.207439,-0.01556 -0.342275,-0.01556 z m 4.177317,2.00698 c 0.243742,0.12965 0.420066,0.277451 0.528972,0.443402 0.108905,0.160766 0.165951,0.326718 0.171137,0.497856 0.01037,0.165951 -0.02593,0.32931 -0.108905,0.490076 -0.07779,0.160766 -0.184103,0.305974 -0.318939,0.435623 -0.134836,0.124464 -0.293009,0.225591 -0.474518,0.303381 -0.176324,0.0726 -0.360427,0.108906 -0.552309,0.108906 -0.217811,0 -0.425251,-0.05705 -0.622319,-0.171138 0.176324,-0.02075 0.352648,-0.07261 0.528971,-0.15558 0.18151,-0.08816 0.347462,-0.197068 0.497856,-0.326717 0.15558,-0.12965 0.290416,-0.269672 0.404507,-0.420066 0.114092,-0.15558 0.191882,-0.308567 0.23337,-0.45896 0.04667,-0.150394 0.04927,-0.290416 0.0078,-0.420066 -0.04149,-0.134835 -0.140021,-0.243741 -0.295602,-0.326717 z m 4.82295,4.480698 c -0.03111,-0.140022 -0.02593,-0.280044 0.01556,-0.420066 0.04149,-0.140021 0.114091,-0.267078 0.217812,-0.38117 0.108906,-0.119278 0.246335,-0.217812 0.412286,-0.295602 0.171138,-0.07779 0.370799,-0.124464 0.598983,-0.140021 -0.119278,0.181509 -0.204847,0.373391 -0.256707,0.575645 -0.04667,0.202253 -0.06482,0.396728 -0.05445,0.583424 0.02075,0.264485 0.09594,0.503041 0.225591,0.715667 0.12965,0.212626 0.31116,0.36302 0.544529,0.451181 0.01037,0.01037 0.01037,0.01556 0,0.01556 -0.264485,0 -0.495262,-0.02852 -0.69233,-0.08557 -0.197068,-0.05705 -0.365613,-0.134837 -0.505634,-0.23337 -0.140022,-0.10372 -0.251521,-0.222998 -0.334497,-0.357834 -0.08298,-0.134835 -0.140022,-0.27745 -0.171138,-0.427844 z m 4.052854,-5.351945 c 0,0.840131 0.0052,1.584321 0.01556,2.23257 0.01037,0.643063 0.0052,1.205744 -0.01556,1.688041 -0.02075,0.477111 -0.06483,0.879026 -0.132243,1.205743 -0.06742,0.326718 -0.176324,0.591204 -0.326717,0.793457 -0.150394,0.197068 -0.355241,0.339683 -0.614541,0.427845 -0.254113,0.08297 -0.580831,0.124463 -0.980152,0.124463 0.228183,0 0.422658,-0.05964 0.583424,-0.178916 0.165952,-0.124464 0.300788,-0.280044 0.404507,-0.46674 0.108906,-0.191881 0.186696,-0.404507 0.23337,-0.637877 0.05186,-0.238555 0.07779,-0.469332 0.07779,-0.69233 v -4.978553 l -0.879026,-0.505635 h -0.02334 v -0.132243 c 0.165952,0 0.326718,0.0078 0.482298,0.02334 0.160765,0.01556 0.321531,0.0363 0.482297,0.06223 0.01037,0 0.01815,0.0026 0.02334,0.0078 0.03111,0.0052 0.05964,0.01039 0.08557,0.01556 h 0.09335 c 0.0363,0.0052 0.07779,0.0052 0.124463,0 0.08298,-0.0052 0.165952,-0.01298 0.248928,-0.02334 0.08298,-0.01037 0.168545,-0.02075 0.256707,-0.03112 0.119278,-0.02075 0.243742,-0.03371 0.373391,-0.03889 0.134836,-0.01037 0.274858,-0.01556 0.420066,-0.01556 v 0.116685 c -0.23337,0 -0.417473,0.03112 -0.552308,0.09335 -0.12965,0.0726 -0.220405,0.150394 -0.272265,0.23337 -0.01037,0.02075 -0.02334,0.04408 -0.03889,0.07001 -0.01037,0.02593 -0.02075,0.06223 -0.03112,0.108906 -0.01037,0.04667 -0.02075,0.108905 -0.03112,0.186695 -0.0052,0.07779 -0.0078,0.18151 -0.0078,0.31116 z m 8.486869,2.683751 c 0,0.513413 -0.09594,0.995711 -0.287823,1.446892 -0.191882,0.451182 -0.453775,0.847911 -0.785678,1.190186 -0.331903,0.337089 -0.720853,0.606761 -1.166848,0.809015 -0.445996,0.202253 -0.923108,0.311159 -1.431335,0.326717 0.274858,-0.01556 0.536751,-0.08038 0.785678,-0.194474 0.248928,-0.114092 0.482298,-0.264486 0.700109,-0.451182 0.217812,-0.191881 0.41488,-0.409693 0.591204,-0.653435 0.176323,-0.248927 0.326717,-0.51082 0.451181,-0.785678 0.124464,-0.274857 0.220405,-0.554901 0.287823,-0.840131 0.0726,-0.290415 0.108906,-0.573052 0.108906,-0.84791 0,-0.409693 -0.0752,-0.832352 -0.225591,-1.267975 -0.150394,-0.435623 -0.357834,-0.834945 -0.622319,-1.197964 -0.2593,-0.368206 -0.567867,-0.67418 -0.9257,-0.917921 -0.352647,-0.243742 -0.736411,-0.375985 -1.151291,-0.396729 0.583571,-0.10137 1.126965,0.166278 1.439114,0.326718 0.312149,0.16044 0.832352,0.474519 1.159069,0.816794 0.331903,0.342275 0.593796,0.739004 0.785678,1.190185 0.191882,0.451181 0.287823,0.933479 0.287823,1.446892 z m -7.880117,0.0078 c 0,-0.508227 0.09335,-0.985339 0.280044,-1.431334 0.186695,-0.451181 0.443402,-0.845317 0.77012,-1.182406 0.326717,-0.342276 0.681829,-0.59368 1.143511,-0.816794 0.461682,-0.223114 1.016545,-0.420477 1.563576,-0.350076 -0.334165,0.05551 -1.030608,0.24367 -1.275754,0.412308 -0.245146,0.168638 -0.650843,0.539343 -0.910142,0.902363 -0.254114,0.363019 -0.456368,0.762341 -0.606761,1.197964 -0.145208,0.435623 -0.217812,0.858282 -0.217812,1.267975 0,0.274858 0.03371,0.557495 0.101127,0.84791 0.0726,0.290416 0.171138,0.573053 0.295601,0.84791 0.124464,0.274858 0.274858,0.536751 0.451182,0.785678 0.181509,0.243742 0.378577,0.461554 0.591203,0.653435 0.217812,0.186696 0.451182,0.33709 0.700109,0.451182 0.254114,0.114091 0.516007,0.178916 0.785678,0.194474 -0.508227,-0.01556 -0.985339,-0.124466 -1.431334,-0.326717 -0.445995,-0.202254 -0.834945,-0.474519 -1.166848,-0.816794 -0.331904,-0.342275 -0.593797,-0.739004 -0.785678,-1.190186 -0.191882,-0.451181 -0.287823,-0.933479 -0.287822,-1.446892 z m 10.143789,3.710579 c -0.440809,0 -0.814201,-0.05705 -1.120174,-0.171138 -0.305973,-0.119278 -0.547122,-0.269672 -0.723446,-0.451182 -0.171138,-0.181509 -0.280044,-0.375984 -0.326718,-0.583424 -0.04149,-0.212625 -0.02334,-0.409693 0.05445,-0.591203 0.08298,-0.18151 0.225591,-0.331904 0.427845,-0.451182 0.202253,-0.119277 0.464146,-0.178916 0.785678,-0.178916 0.176323,0 0.35524,0.01815 0.53675,0.05445 -0.160766,0.06223 -0.295602,0.134837 -0.404508,0.217811 -0.108905,0.07779 -0.197067,0.163359 -0.264485,0.256707 -0.06742,0.09335 -0.116685,0.189289 -0.147801,0.287823 -0.03111,0.09335 -0.04667,0.184102 -0.04667,0.272264 -0.0052,0.140022 0.0311,0.28523 0.108906,0.435624 0.07779,0.145207 0.176324,0.280043 0.295602,0.404507 0.124463,0.124464 0.259299,0.23337 0.404507,0.326718 0.150394,0.08816 0.290416,0.145208 0.420065,0.171138 z M 98.0044,50.846281 c -0.269672,-0.238556 -0.477112,-0.490077 -0.622319,-0.754562 -0.140022,-0.269672 -0.220405,-0.531565 -0.241149,-0.785678 -0.02075,-0.2593 0.01555,-0.505635 0.108906,-0.739004 0.09853,-0.23337 0.251521,-0.435624 0.45896,-0.606761 0.212626,-0.176324 0.477112,-0.31116 0.793457,-0.404508 0.316346,-0.09853 0.684552,-0.140022 1.104617,-0.124464 -0.28523,-0.01037 -0.539344,0.03111 -0.762341,0.124464 -0.217812,0.08816 -0.401915,0.210033 -0.552309,0.365613 -0.145207,0.155579 -0.254113,0.334496 -0.326717,0.53675 -0.06742,0.202254 -0.09335,0.409694 -0.07779,0.622319 0.01556,0.212626 0.07261,0.425252 0.171138,0.637877 0.09853,0.20744 0.243742,0.396729 0.435623,0.567867 0.18151,0.150393 0.417473,0.32931 0.707888,0.53675 0.264486,0.191882 0.521193,0.394136 0.77012,0.606761 0.254106,0.20744 0.479706,0.427845 0.676776,0.661214 0.20225,0.228184 0.36302,0.469333 0.48229,0.723446 0.12447,0.254114 0.19189,0.521193 0.20226,0.801236 0,0.05705 -0.008,0.132244 -0.0233,0.225591 -0.0104,0.08816 -0.0363,0.186696 -0.0778,0.295602 -0.0363,0.103719 -0.0934,0.207439 -0.17114,0.311159 -0.0778,0.10372 -0.17891,0.199661 -0.30338,0.287823 -0.12446,0.08298 -0.27745,0.152987 -0.45896,0.210033 -0.18151,0.05186 -0.399318,0.07779 -0.653433,0.07779 -0.12965,0 -0.264486,-0.0078 -0.404508,-0.02334 0.2593,0.01037 0.477112,-0.01815 0.653435,-0.08557 0.176326,-0.0726 0.329306,-0.225591 0.458956,-0.458961 0.16077,-0.280043 0.23597,-0.541936 0.2256,-0.785678 -0.005,-0.248927 -0.0676,-0.482297 -0.1867,-0.700109 -0.11928,-0.217811 -0.28005,-0.422658 -0.482298,-0.61454 C 99.713195,52.163522 99.500559,51.982013 99.272375,51.810876 99.049378,51.634552 98.823787,51.4686 98.595603,51.31302 98.372605,51.152255 98.175537,50.996675 98.0044,50.846281 Z m 2.02254,-3.383861 c 0.40451,0.12965 0.72085,0.282637 0.94903,0.458961 0.22819,0.176323 0.38377,0.35524 0.46674,0.53675 0.0882,0.18151 0.1167,0.360427 0.0856,0.53675 -0.0311,0.171138 -0.10114,0.324125 -0.21003,0.458961 -0.10372,0.129649 -0.23856,0.230776 -0.40451,0.30338 -0.16595,0.0726 -0.33968,0.09853 -0.52119,0.07779 0.15558,-0.217811 0.26189,-0.445995 0.31894,-0.684551 0.0571,-0.243741 0.0674,-0.474518 0.0311,-0.69233 -0.0311,-0.222998 -0.10892,-0.422659 -0.23337,-0.598982 -0.11927,-0.176324 -0.28004,-0.308567 -0.48229,-0.396729 z m 2.69152,0.739004 c -0.14521,-0.212625 -0.32931,-0.370798 -0.55231,-0.474518 -0.21781,-0.10372 -0.45378,-0.15558 -0.70789,-0.15558 v -0.132243 c 0.31116,0 0.61713,0.02334 0.91792,0.07001 0.10891,0.01556 0.21781,0.02853 0.32672,0.0389 0.10891,0.01037 0.21781,0.01556 0.32672,0.01556 0.0985,0 0.19447,-0.02074 0.28782,-0.06223 0.12447,-0.02075 0.25412,-0.0363 0.38895,-0.04667 0.13483,-0.01037 0.27486,-0.01556 0.42007,-0.01556 v 0.132243 c -0.10372,0 -0.21003,0.0078 -0.31894,0.02334 -0.10891,0.01556 -0.19966,0.06742 -0.27227,0.15558 -0.0155,0.02593 -0.0285,0.05186 -0.0389,0.07779 -0.0104,0.02593 -0.0156,0.05446 -0.0156,0.08557 0,0.06223 0.0182,0.124465 0.0545,0.186696 l 1.53246,2.660414 c -0.005,0.741597 -0.0105,1.343173 -0.0156,1.804726 v 1.081279 0.528972 0.178916 0.0078 c 0,0.05186 0.0156,0.111499 0.0467,0.178917 0.0311,0.06223 0.083,0.119279 0.15558,0.171138 0.0726,0.05186 0.16595,0.09594 0.28004,0.132243 0.11409,0.0363 0.25412,0.05445 0.42007,0.05445 v 0.124463 c -0.14521,0 -0.26708,-0.0052 -0.36561,-0.01556 -0.0934,-0.01556 -0.17892,-0.03112 -0.25671,-0.04667 -0.0778,-0.01556 -0.15558,-0.02853 -0.23337,-0.0389 -0.0726,-0.01556 -0.16077,-0.02334 -0.26449,-0.02334 -0.0778,0 -0.16595,0.0052 -0.26448,0.01556 -0.0985,0.0052 -0.21522,0.02076 -0.35006,0.04667 -0.16595,0.02074 -0.31634,0.0363 -0.45118,0.04667 -0.13483,0.01037 -0.25411,0.01556 -0.35783,0.01556 v -0.124463 c 0.16077,0 0.2982,-0.01556 0.41229,-0.04667 0.11409,-0.0363 0.20484,-0.08038 0.27226,-0.132243 0.0726,-0.05705 0.12447,-0.116686 0.15558,-0.178917 0.0363,-0.06223 0.0545,-0.121872 0.0545,-0.178917 0.005,-0.0726 0.008,-0.140022 0.008,-0.202253 v -0.186696 c -0.0104,-0.471925 -0.005,-0.956816 0.0156,-1.454671 0.0207,-0.503041 0.0207,-1.021641 0,-1.555798 l -0.11669,-0.194475 c -0.0726,-0.12965 -0.16854,-0.293009 -0.28782,-0.490076 -0.11409,-0.197068 -0.24115,-0.412287 -0.38117,-0.645657 -0.13483,-0.233369 -0.26189,-0.451181 -0.38117,-0.653435 -0.11928,-0.207439 -0.22041,-0.383763 -0.30338,-0.528971 -0.083,-0.145208 -0.12965,-0.228184 -0.14002,-0.248928 z m 4.83853,-0.700109 c -0.0571,0 -0.15301,0.0726 -0.28782,0.217812 -0.13484,0.145208 -0.28783,0.326718 -0.45896,0.544529 -0.17114,0.217812 -0.35006,0.456368 -0.53675,0.715667 -0.1867,0.254114 -0.36043,0.495263 -0.5212,0.723446 -0.15557,0.228184 -0.28781,0.422659 -0.39672,0.583425 -0.10372,0.160765 -0.16336,0.254113 -0.17892,0.280043 0.0155,-0.05705 0.0544,-0.171138 0.11668,-0.342275 0.0623,-0.171138 0.13487,-0.370799 0.21782,-0.598982 0.083,-0.228184 0.16595,-0.46674 0.24892,-0.715668 0.0882,-0.248927 0.16336,-0.477111 0.22559,-0.684551 0.0623,-0.207439 0.10635,-0.378577 0.13225,-0.513413 0.0311,-0.140022 0.0285,-0.210033 -0.008,-0.210033 v -0.07001 c 0.083,0 0.15039,0.0026 0.20225,0.0078 0.0519,0.0052 0.096,0.01298 0.13224,0.02334 0.0415,0.0052 0.0804,0.01298 0.11669,0.02334 0.0415,0.0052 0.0933,0.0078 0.15558,0.0078 0.0778,0 0.18929,-0.0078 0.3345,-0.02334 0.0882,-0.01037 0.16336,-0.01815 0.22559,-0.02334 0.0622,-0.01037 0.15555,-0.01556 0.28004,-0.01556 z m 1.34576,-0.09335 c 0.12446,0 0.23077,0.0052 0.31893,0.01556 0.0882,0.0052 0.16855,0.01557 0.24115,0.03112 0.0726,0.01037 0.14262,0.02075 0.21004,0.03112 0.0674,0.0052 0.14002,0.0078 0.21781,0.0078 0.083,0 0.17632,-0.0052 0.28004,-0.01556 0.10372,-0.01556 0.23078,-0.0389 0.38117,-0.07001 l 2.80044,6.985533 c 0.0363,0.10372 0.0882,0.189289 0.15558,0.256707 0.0674,0.06223 0.1452,0.114093 0.23337,0.15558 0.0882,0.0363 0.18151,0.06223 0.28004,0.07779 0.10372,0.01037 0.20485,0.01556 0.30338,0.01556 v 0.124463 c -0.12965,0 -0.2567,-0.0052 -0.38117,-0.01556 -0.12446,-0.01037 -0.25152,-0.02593 -0.38117,-0.04667 -0.28005,-0.04667 -0.49527,-0.07001 -0.64566,-0.07001 -0.10372,0 -0.19447,0.0078 -0.27226,0.02334 -0.0726,0.01037 -0.14521,0.02593 -0.21781,0.04667 -0.0726,0.01556 -0.15558,0.03112 -0.24893,0.04667 -0.0934,0.01037 -0.21003,0.01556 -0.35005,0.01556 v -0.124463 c 0.50304,0 0.75456,-0.106313 0.75456,-0.318939 0,-0.02593 -0.0363,-0.134839 -0.10891,-0.326718 -0.0674,-0.191881 -0.16077,-0.438216 -0.28004,-0.739004 -0.11409,-0.300787 -0.24634,-0.637877 -0.39673,-1.011268 -0.15039,-0.378578 -0.30338,-0.762342 -0.45896,-1.151291 -0.36821,-0.907549 -0.78568,-1.934375 -1.25242,-3.08048 -0.0363,-0.07779 -0.0675,-0.158173 -0.0934,-0.241148 -0.0259,-0.08816 -0.0752,-0.168545 -0.1478,-0.241149 -0.0726,-0.0726 -0.1815,-0.132243 -0.32671,-0.178917 -0.14003,-0.04667 -0.34487,-0.07001 -0.61454,-0.07001 z m -2.20146,7.491168 c 0.0415,0 0.10889,-0.0726 0.20226,-0.217812 0.0985,-0.145208 0.21522,-0.334497 0.35005,-0.567866 0.13483,-0.238556 0.28263,-0.508228 0.4434,-0.809015 0.16077,-0.300788 0.32153,-0.609355 0.4823,-0.9257 0.37339,-0.741597 0.78568,-1.581728 1.23686,-2.520393 v 0.0078 c -0.0726,0.212626 -0.16336,0.456368 -0.27227,0.731225 -0.1089,0.269672 -0.22558,0.557495 -0.35005,0.863468 -0.11928,0.300788 -0.23596,0.611948 -0.35005,0.933479 -0.11409,0.316345 -0.21263,0.624912 -0.29561,0.9257 -0.0778,0.300787 -0.13224,0.58861 -0.16336,0.863468 -0.0311,0.269671 -0.0234,0.508227 0.0233,0.715667 v 0.124463 c -0.083,0 -0.1478,-0.0052 -0.19447,-0.01556 -0.0467,-0.01556 -0.0856,-0.03112 -0.11669,-0.04667 -0.0259,-0.02075 -0.0519,-0.0363 -0.0778,-0.04667 -0.0259,-0.01556 -0.0648,-0.02334 -0.11668,-0.02334 -0.0622,0 -0.17889,0.02334 -0.35006,0.07001 -0.16595,0.04149 -0.31634,0.06223 -0.45118,0.06223 z m 8.15238,-7.491168 c 0.0778,0.02593 0.16076,0.04668 0.24892,0.06223 0.0778,0.02075 0.16336,0.0389 0.25671,0.05445 0.0985,0.01037 0.19707,0.01556 0.2956,0.01556 0.10372,0 0.21003,-0.0078 0.31894,-0.02334 0.11409,-0.02075 0.23078,-0.04668 0.35005,-0.07779 h 0.0156 c 0.12447,0.269672 0.27486,0.601576 0.45118,0.995711 0.18151,0.394135 0.3708,0.809015 0.56787,1.244638 0.20225,0.435624 0.40191,0.871248 0.59898,1.306871 0.19707,0.430437 0.37339,0.82198 0.52897,1.174627 0.16077,0.347461 0.29042,0.632691 0.38895,0.855689 0.10372,0.222998 0.15817,0.342276 0.16336,0.357834 0.0415,0.08297 0.0907,0.194474 0.1478,0.334496 0.0623,0.134836 0.12191,0.269672 0.17892,0.404508 l -0.28004,0.910141 h -0.12447 c -0.0104,-0.01556 -0.0415,-0.07779 -0.0934,-0.186695 -0.0467,-0.108906 -0.10112,-0.23337 -0.16335,-0.373392 -0.0623,-0.145208 -0.12709,-0.290416 -0.19448,-0.435623 -0.0623,-0.145208 -0.11413,-0.264486 -0.15558,-0.357834 -0.005,-0.01556 -0.0468,-0.106315 -0.12446,-0.272264 -0.0726,-0.165952 -0.16855,-0.378578 -0.28783,-0.637878 -0.11927,-0.264485 -0.25411,-0.56268 -0.4045,-0.894583 -0.14521,-0.33709 -0.2982,-0.679366 -0.45896,-1.026827 -0.15558,-0.347461 -0.31116,-0.689737 -0.46674,-1.026827 -0.15558,-0.342275 -0.2982,-0.650842 -0.42785,-0.9257 -0.12446,-0.280043 -0.23077,-0.513413 -0.31894,-0.700109 -0.0882,-0.191881 -0.1452,-0.311159 -0.17113,-0.357833 -0.0363,-0.06223 -0.0882,-0.1115 -0.15558,-0.147801 -0.0674,-0.04149 -0.14262,-0.0726 -0.22559,-0.09335 -0.0778,-0.02075 -0.15818,-0.03371 -0.24115,-0.03889 -0.083,-0.0052 -0.15558,-0.0078 -0.21781,-0.0078 z m 4.36401,-0.0078 c 0.0415,0 0.0881,0.0078 0.14002,0.02334 0.0519,0.01037 0.10373,0.02334 0.15558,0.0389 0.0519,0.01556 0.10113,0.03112 0.1478,0.04667 0.0467,0.01037 0.083,0.01556 0.10891,0.01556 0.0933,0.0052 0.16854,0.0026 0.22559,-0.0078 0.0571,-0.01556 0.10893,-0.03112 0.15558,-0.04667 0.0519,-0.01556 0.10373,-0.03112 0.15558,-0.04667 0.0571,-0.01556 0.12967,-0.02334 0.21781,-0.02334 v 0.132243 c -0.19707,0.05186 -0.35524,0.197068 -0.47452,0.435624 -0.11928,0.238555 -0.21263,0.528971 -0.28004,0.871247 -0.0674,0.342275 -0.1141,0.720853 -0.14003,1.135732 -0.0259,0.414879 -0.0467,0.824573 -0.0622,1.22908 -0.0155,0.404508 -0.0337,0.785679 -0.0545,1.143512 -0.0207,0.357833 -0.057,0.653435 -0.10891,0.886805 0.0207,-1.063129 0.0285,-2.014758 0.0233,-2.854889 0,-0.357834 -0.005,-0.705296 -0.0156,-1.042385 -0.005,-0.342275 -0.0157,-0.645656 -0.0311,-0.910142 -0.0155,-0.269671 -0.0363,-0.48489 -0.0622,-0.645656 -0.0259,-0.165952 -0.0596,-0.248928 -0.10113,-0.248928 z m -4.59738,7.452273 c 0.0415,0 0.0752,-0.08038 0.10112,-0.241149 0.0259,-0.165952 0.0467,-0.381171 0.0622,-0.645656 0.0155,-0.269672 0.0259,-0.573053 0.0311,-0.910142 0.0104,-0.342275 0.0156,-0.69233 0.0156,-1.050164 0.005,-0.834945 -0.002,-1.783981 -0.0233,-2.84711 0.0519,0.23337 0.0882,0.528972 0.10891,0.886805 0.0207,0.357833 0.0389,0.739004 0.0545,1.143511 0.0155,0.404508 0.0363,0.814202 0.0622,1.229081 0.0259,0.409693 0.0726,0.785678 0.14002,1.127953 0.0674,0.342276 0.16077,0.632692 0.28005,0.871247 0.11927,0.238556 0.27745,0.383764 0.47452,0.435624 v 0.140021 c -0.0882,0 -0.16077,-0.0078 -0.21782,-0.02334 -0.0519,-0.01556 -0.10373,-0.03112 -0.15558,-0.04667 -0.0467,-0.01556 -0.0985,-0.02852 -0.15558,-0.03889 -0.0571,-0.01556 -0.13226,-0.02334 -0.22559,-0.02334 -0.0311,0 -0.07,0.0078 -0.11668,0.02334 -0.0467,0.01556 -0.0959,0.03112 -0.1478,0.04667 -0.0519,0.01556 -0.10373,0.03112 -0.15558,0.04667 -0.0467,0.01037 -0.0907,0.01556 -0.13224,0.01556 z"
         id="path2"
         sodipodi:nodetypes="ccccccscscccccsccsccccsccccccccccscccccsscsscscscccccscccsccccscccccscscscccccccccccscccccccccscccccscsscscccccsccccccsccccccccccccccccccscccsscscsccscssccczcssscczczccscsccccssssssccccssccscccccscccccccccccsccccccccccccsccccccccccscccscccccccccccssccccscssccccccsccscccscsccsccccccscccccccsccccscccccccccccsccsccccccccsccccccccscscccccsccccccsccccccscccccccccccccsccccccsccccccccccccccccccccccccccccccccscccccccssssccccccccccccccsccsscccccssscc" />
    </g>
  </g>
</svg>
